<?xml version="1.0" encoding="UTF-8" standalone="no"?>
<!-- Created with Inkscape (http://www.inkscape.org/) -->

<svg
   width="497.26315mm"
   height="75.81498mm"
   viewBox="0 0 497.26315 75.81498"
   version="1.1"
   id="svg1"
   xmlns="http://www.w3.org/2000/svg"
   xmlns:svg="http://www.w3.org/2000/svg">
  <defs
     id="defs1">
    <clipPath
       clipPathUnits="userSpaceOnUse"
       id="clipPath5">
      <path
         d="M 0,300 H 600 V 0 H 0 Z"
         transform="translate(-233.3143,-151.7782)"
         id="path5" />
    </clipPath>
    <clipPath
       clipPathUnits="userSpaceOnUse"
       id="clipPath7">
      <path
         d="M 0,300 H 600 V 0 H 0 Z"
         transform="translate(-275.36961,-124.7974)"
         id="path7" />
    </clipPath>
    <clipPath
       clipPathUnits="userSpaceOnUse"
       id="clipPath9">
      <path
         d="M 0,300 H 600 V 0 H 0 Z"
         transform="translate(-289.4395,-144.97461)"
         id="path9" />
    </clipPath>
    <clipPath
       clipPathUnits="userSpaceOnUse"
       id="clipPath11">
      <path
         d="M 0,300 H 600 V 0 H 0 Z"
         transform="translate(-315.64731,-128.12151)"
         id="path11" />
    </clipPath>
    <clipPath
       clipPathUnits="userSpaceOnUse"
       id="clipPath13">
      <path
         d="M 0,300 H 600 V 0 H 0 Z"
         transform="translate(-360.02201,-128.8945)"
         id="path13" />
    </clipPath>
    <clipPath
       clipPathUnits="userSpaceOnUse"
       id="clipPath15">
      <path
         d="M 0,300 H 600 V 0 H 0 Z"
         transform="translate(-391.79521,-162.8332)"
         id="path15" />
    </clipPath>
    <clipPath
       clipPathUnits="userSpaceOnUse"
       id="clipPath17">
      <path
         d="M 0,300 H 600 V 0 H 0 Z"
         transform="translate(-412.59091,-155.3343)"
         id="path17" />
    </clipPath>
    <clipPath
       clipPathUnits="userSpaceOnUse"
       id="clipPath19">
      <path
         d="M 0,300 H 600 V 0 H 0 Z"
         transform="translate(-466.93951,-152.0874)"
         id="path19" />
    </clipPath>
    <clipPath
       clipPathUnits="userSpaceOnUse"
       id="clipPath21">
      <path
         d="M 0,300 H 600 V 0 H 0 Z"
         transform="translate(-512.31871,-124.7974)"
         id="path21" />
    </clipPath>
    <clipPath
       clipPathUnits="userSpaceOnUse"
       id="clipPath27">
      <path
         d="M 0,300 H 600 V 0 H 0 Z"
         transform="translate(-497.28461,-159.67611)"
         id="path27" />
    </clipPath>
    <clipPath
       clipPathUnits="userSpaceOnUse"
       id="clipPath25">
      <path
         d="M 0,300 H 600 V 0 H 0 Z"
         transform="translate(-260.44771,-159.6543)"
         id="path25" />
    </clipPath>
    <clipPath
       clipPathUnits="userSpaceOnUse"
       id="clipPath23">
      <path
         d="M 0,300 H 600 V 0 H 0 Z"
         transform="translate(-530.48572,-153.2469)"
         id="path23" />
    </clipPath>
  </defs>
  <g
     id="layer1"
     transform="translate(133.53245,-106.08208)">
    <path
       id="path4"
       d="m 0,0 c 3.556,-6.108 12.447,-16.931 16.853,-21.26 1.005,-0.928 2.242,-1.933 3.325,-2.319 1.391,-0.464 3.169,-0.697 4.174,-0.774 0.232,-0.386 0,-2.242 -0.309,-2.628 -3.634,-0.387 -14.225,-0.31 -16.39,0.541 -1.701,0.695 -3.324,2.474 -4.252,3.556 -3.942,4.484 -8.89,11.597 -12.214,16.622 -0.155,0.309 -0.851,1.005 -1.237,1.314 0,0.232 0.077,1.392 0.309,1.392 3.479,1.855 7.189,5.256 13.142,13.219 2.01,2.706 2.861,4.407 2.861,5.567 0,0.541 -0.31,1.082 -1.314,1.391 -1.005,0.387 -2.32,0.619 -4.484,0.851 -0.232,0.541 -0.232,2.319 0.077,2.628 2.783,0 5.18,-0.232 9.277,-0.232 5.798,0.078 7.886,0.155 10.282,0.232 0.309,-0.309 0.309,-2.242 -0.077,-2.628 -4.329,-0.696 -6.34,-1.005 -9.664,-4.948 C 6.803,8.349 2.551,3.247 0,0.387 Z m -10.36,-20.023 c 0.078,-2.01 0.696,-3.016 2.243,-3.479 1.005,-0.31 2.551,-0.541 4.174,-0.851 0.232,-0.386 -0.077,-2.396 -0.387,-2.628 -3.247,0.077 -6.184,0.232 -11.673,0.232 -6.262,0 -9.741,-0.232 -11.828,-0.232 -0.233,0.386 -0.233,2.165 0,2.551 1.7,0.309 3.014,0.541 4.019,0.773 1.856,0.541 2.243,1.546 2.32,4.793 0.077,3.016 0.154,10.128 0.077,16.699 0,7.422 0,12.601 -0.077,15.23 -0.077,1.778 -0.464,3.17 -1.778,3.556 -0.928,0.31 -2.706,0.619 -4.175,0.851 -0.464,0.309 -0.309,2.319 0,2.628 1.624,0 4.948,-0.232 11.519,-0.232 3.943,0 7.731,0.232 10.978,0.232 0.155,-0.387 0.232,-2.165 0,-2.628 -1.546,-0.232 -2.242,-0.31 -3.402,-0.696 -1.546,-0.464 -1.932,-1.546 -2.01,-3.788 -0.077,-3.943 -0.154,-11.596 -0.154,-16.39 0,-7.962 0,-12.833 0.154,-16.621"
       style="fill:#f7fbfe;fill-opacity:1;fill-rule:nonzero;stroke:none"
       transform="matrix(1.4379325,0,0,-1.4379325,-93.262071,141.43264)"
       clip-path="url(#clipPath5)" />
    <path
       id="path6"
       d="M 0,0 C -1.469,0 -4.406,0.232 -9.277,0.232 -13.606,0.232 -16.389,0 -18.322,0 c -0.232,0.386 -0.31,2.319 0,2.628 1.237,0.232 2.087,0.387 2.86,0.696 1.083,0.309 1.237,1.16 1.314,3.015 0.078,1.701 0.078,6.494 0.078,10.205 0,2.629 0,5.721 -0.078,7.035 0,0.619 -0.154,1.546 -0.54,1.933 -0.542,0.618 -1.083,1.005 -3.093,1.778 -0.232,0.387 -0.077,2.087 0.154,2.396 1.779,0 9.742,1.083 13.684,2.706 0,-3.169 -0.077,-8.813 -0.077,-13.142 0,-3.943 0,-9.123 0.077,-12.679 0,-2.32 0.464,-2.86 1.392,-3.247 C -2.01,3.169 -1.082,2.938 0.387,2.628 0.619,2.319 0.464,0.386 0,0"
       style="fill:#f7fbfe;fill-opacity:1;fill-rule:nonzero;stroke:none"
       transform="matrix(1.4379325,0,0,-1.4379325,-32.789361,180.22922)"
       clip-path="url(#clipPath7)" />
    <path
       id="path8"
       d="M 0,0 C 0,-0.077 0.154,-0.464 0.464,-0.464 2.242,-0.541 7.422,-0.541 8.736,-0.232 8.968,-0.154 9.2,0.155 9.2,0.464 8.968,5.412 7.267,8.968 4.329,8.968 1.701,8.968 0,5.18 0,0 m 19.714,-11.287 c 0.077,-0.773 -0.31,-2.242 -0.387,-2.551 -3.402,-4.175 -9.122,-7.035 -14.225,-7.035 -4.638,0 -7.962,1.392 -10.359,3.711 -3.324,3.169 -4.639,7.962 -4.639,12.678 0,6.34 3.093,11.288 7.267,13.916 2.706,1.624 6.185,2.629 9.278,2.629 8.658,0 11.596,-6.958 12.292,-11.21 0.077,-0.464 0.773,-0.928 1.159,-1.083 0.077,-0.232 -0.232,-1.933 -0.463,-2.087 C 17.395,-3.092 5.953,-3.788 0.464,-4.02 0.309,-4.097 0.154,-4.561 0.154,-4.793 c 0.155,-2.087 1.083,-4.484 2.938,-6.339 1.856,-1.778 4.175,-2.629 7.344,-2.629 3.248,0 5.953,0.773 8.891,3.015 0.077,-0.077 0.387,-0.309 0.387,-0.541"
       style="fill:#f7fbfe;fill-opacity:1;fill-rule:nonzero;stroke:none"
       transform="matrix(1.4379325,0,0,-1.4379325,-12.557831,151.21576)"
       clip-path="url(#clipPath9)" />
    <path
       id="path10"
       d="m 0,0 c 1.083,0.386 1.314,1.469 1.314,2.628 0.078,6.185 0.078,13.607 0.078,20.024 0,0.154 -0.155,0.54 -0.386,0.54 l -3.789,0.233 c 0,0.541 0.464,2.396 0.696,2.706 0.851,0.231 2.628,1.005 3.247,1.391 0.232,0.155 0.309,0.464 0.309,0.541 0.232,7.808 3.17,13.143 9.2,17.24 3.015,2.01 6.262,2.938 8.504,2.938 3.634,0 5.643,-1.16 6.649,-2.551 0.154,-0.31 0.154,-1.16 0.077,-1.469 -0.464,-1.315 -2.938,-4.948 -3.865,-5.489 -0.233,-0.155 -1.006,-0.155 -1.237,-0.078 -1.856,2.165 -4.794,4.948 -6.804,4.948 -0.618,0 -1.237,-0.232 -1.7,-0.85 -0.85,-1.16 -1.16,-3.015 -1.16,-8.813 0,-1.856 0.077,-4.407 0.154,-5.567 0,-0.232 0.31,-0.541 0.542,-0.541 4.716,0.155 6.03,0.155 7.422,0.232 -0.233,-1.159 -0.619,-3.324 -0.774,-4.871 -2.319,0 -4.561,0.078 -6.803,0.078 -0.231,0 -0.387,-0.309 -0.387,-0.464 0.077,-8.813 0.156,-15.694 0.31,-19.405 0.077,-2.009 0.463,-2.86 1.932,-3.324 1.16,-0.386 2.166,-0.541 3.943,-0.773 0.232,-0.309 -0.077,-2.396 -0.386,-2.628 -2.165,0 -4.175,0.232 -11.133,0.232 -3.788,0 -7.189,-0.232 -8.891,-0.232 -0.308,0.386 -0.308,2.319 0,2.628 C -1.855,-0.464 -0.696,-0.309 0,0"
       style="fill:#f7fbfe;fill-opacity:1;fill-rule:nonzero;stroke:none"
       transform="matrix(1.4379325,0,0,-1.4379325,25.127219,175.44938)"
       clip-path="url(#clipPath11)" />
    <path
       id="path12"
       d="m 0,0 c 2.01,-1.469 4.793,-2.087 7.035,-2.087 3.634,0 6.494,2.164 6.494,6.03 0,3.633 -1.469,5.953 -8.658,10.359 C -1.7,18.4 -7.267,21.956 -7.267,30.15 c 0,9.123 7.576,13.994 16.467,13.994 5.953,0 9.122,-1.005 12.91,-1.315 -0.54,-2.937 -1.004,-6.571 -1.314,-11.441 -0.386,-0.387 -2.319,-0.387 -2.705,-0.155 -0.696,4.716 -1.702,6.958 -3.556,8.272 -1.625,1.314 -3.402,1.778 -5.799,1.778 -4.097,0 -6.649,-2.86 -6.649,-6.494 0,-3.247 1.624,-5.334 4.794,-7.499 3.323,-2.087 5.256,-3.247 8.581,-5.257 5.721,-3.556 8.272,-6.958 8.272,-12.524 0,-8.195 -6.572,-14.766 -18.555,-14.766 -5.333,0 -10.05,1.469 -11.983,2.474 -0.85,1.237 -2.396,9.741 -2.473,12.446 0.232,0.465 2.242,1.083 2.706,0.851 C -4.871,5.18 -2.86,2.165 0,0"
       style="fill:#f7fbfe;fill-opacity:1;fill-rule:nonzero;stroke:none"
       transform="matrix(1.4379325,0,0,-1.4379325,88.935059,174.33785)"
       clip-path="url(#clipPath13)" />
    <path
       id="path14"
       d="m 0,0 c 2.474,0.696 7.345,3.092 8.582,4.098 0.309,0.077 1.392,0.231 1.778,0.154 -0.232,-1.778 -0.309,-5.489 -0.309,-10.514 0,-0.309 0.154,-0.618 0.309,-0.618 1.623,0 6.339,0.231 8.427,0.309 -0.232,-1.314 -0.696,-3.711 -0.773,-5.025 -2.319,0.077 -5.025,0.077 -7.654,0.077 -0.077,0 -0.309,-0.309 -0.309,-0.464 0,-2.938 -0.077,-8.427 -0.077,-12.06 0,-2.783 0,-4.252 0.309,-5.798 0.231,-1.624 1.623,-3.015 3.943,-3.015 1.546,0 2.783,0.232 4.174,1.082 0.155,-0.387 0.155,-2.01 -0.078,-2.706 -2.164,-2.86 -5.798,-4.174 -9.277,-4.174 -3.633,0 -6.493,1.159 -7.962,3.71 -1.16,2.088 -1.16,4.175 -1.16,8.581 0,3.866 0.077,10.824 0.077,14.071 0,0.309 -0.154,0.696 -0.463,0.773 -1.083,0.155 -2.552,0.155 -3.711,0.309 0,0.541 0.386,2.474 0.696,3.17 1.005,0.232 2.551,0.618 3.092,0.85 0.154,0 0.309,0.31 0.386,0.619 z"
       style="fill:#f7fbfe;fill-opacity:1;fill-rule:nonzero;stroke:none"
       transform="matrix(1.4379325,0,0,-1.4379325,134.62278,125.53629)"
       clip-path="url(#clipPath15)" />
    <path
       id="path16"
       d="m 0,0 c 3.479,0.154 10.437,0.309 14.379,1.237 -0.309,-2.319 -0.463,-6.34 -0.463,-13.993 0,-4.561 -0.078,-7.19 0.386,-8.736 0.464,-1.701 1.933,-3.17 4.793,-3.17 1.546,0 2.938,0.619 3.711,1.237 0.387,0.387 0.541,0.851 0.541,1.16 0.155,1.237 0.232,6.649 0,16.389 0,0.851 -0.231,2.088 -1.314,2.397 -1.16,0.387 -2.473,0.619 -4.02,0.85 C 17.858,-1.856 17.935,-0.387 18.245,0 24.893,0 31.31,0.773 33.707,1.16 33.629,0.464 33.552,-3.556 33.552,-6.881 V -22.42 c 0.077,-1.469 0.387,-2.474 1.391,-2.628 1.006,-0.077 1.933,-0.077 3.171,-0.077 0,-0.542 -0.078,-2.243 -0.387,-2.707 -3.092,-1.391 -11.829,-3.478 -13.452,-3.478 -0.155,0.077 -0.386,0.386 -0.463,0.54 -0.233,0.852 -0.387,3.248 -0.387,4.253 0,0.154 -0.232,0.309 -0.387,0.154 -3.478,-2.86 -6.957,-4.715 -10.282,-4.715 -6.108,0 -8.736,4.097 -8.814,9.663 -0.077,3.788 0,11.365 -0.077,15.23 -0.077,1.624 -0.232,2.474 -1.469,2.86 C 1.778,-3.17 0.619,-2.86 -0.31,-2.706 -0.464,-2.087 -0.31,-0.387 0,0"
       style="fill:#f7fbfe;fill-opacity:1;fill-rule:nonzero;stroke:none"
       transform="matrix(1.4379325,0,0,-1.4379325,164.52559,136.31922)"
       clip-path="url(#clipPath17)" />
    <path
       id="path18"
       d="m 0,0 c -1.314,-1.469 -2.242,-4.098 -2.242,-8.195 0,-8.349 3.711,-13.529 9.045,-13.529 0.773,0 1.778,0.155 2.628,0.696 0.31,0.232 0.542,0.618 0.619,1.391 0.077,2.397 0.154,11.287 0,15.539 C 9.973,-2.01 9.2,-0.773 7.963,0.154 6.494,1.237 5.102,1.623 3.556,1.623 2.473,1.623 1.159,1.16 0,0 m 9.741,4.948 c 0.155,0 0.386,0.154 0.386,0.309 0,3.479 0,8.272 -0.231,10.437 -0.078,1.082 -0.233,2.396 -1.625,2.937 -1.081,0.387 -2.473,0.696 -4.173,0.851 -0.233,0.386 -0.079,2.319 0.308,2.474 4.407,0 13.143,1.236 16.158,2.319 0.232,-0.155 0.542,-1.083 0.542,-1.392 C 20.254,21.646 20.254,20.409 20.177,14.534 20.1,9.818 20.1,4.02 20.1,-6.339 c 0,-2.629 0,-9.432 0.077,-12.525 0.077,-2.628 0.542,-3.169 1.315,-3.247 0.85,-0.154 1.623,-0.154 3.324,-0.154 0.077,-0.309 -0.31,-2.397 -0.541,-2.629 -3.092,-1.546 -11.829,-3.402 -13.529,-3.402 -0.155,0 -0.542,0.465 -0.619,0.696 -0.154,0.696 -0.077,2.475 -0.154,3.788 0,0.078 -0.232,0.233 -0.387,0.155 -3.401,-2.319 -7.731,-4.174 -10.282,-4.174 -3.479,0 -6.262,1.546 -8.349,4.174 -2.165,2.629 -3.557,6.726 -3.557,11.055 0,5.335 2.474,10.205 6.03,12.834 3.093,2.474 9.587,4.716 14.226,4.716 z"
       style="fill:#f7fbfe;fill-opacity:1;fill-rule:nonzero;stroke:none"
       transform="matrix(1.4379325,0,0,-1.4379325,242.67522,140.98803)"
       clip-path="url(#clipPath19)" />
    <path
       id="path20"
       d="M 0,0 C -1.469,0 -4.406,0.232 -9.277,0.232 -13.606,0.232 -16.389,0 -18.322,0 c -0.232,0.386 -0.309,2.319 0,2.628 1.237,0.232 2.087,0.387 2.86,0.696 1.083,0.309 1.237,1.16 1.314,3.015 0.078,1.701 0.078,6.494 0.078,10.205 0,2.629 0,5.721 -0.078,7.035 0,0.619 -0.154,1.546 -0.541,1.933 -0.54,0.618 -1.082,1.005 -3.092,1.778 -0.232,0.387 -0.077,2.087 0.154,2.396 1.779,0 9.742,1.083 13.685,2.706 0,-3.169 -0.078,-8.813 -0.078,-13.142 0,-3.943 0,-9.123 0.078,-12.679 0,-2.32 0.463,-2.86 1.39,-3.247 C -2.01,3.169 -1.082,2.938 0.387,2.628 0.619,2.319 0.464,0.386 0,0"
       style="fill:#f7fbfe;fill-opacity:1;fill-rule:nonzero;stroke:none"
       transform="matrix(1.4379325,0,0,-1.4379325,307.92744,180.22922)"
       clip-path="url(#clipPath21)" />
    <path
       id="path22"
       d="m 0,0 c -2.01,-1.469 -3.016,-4.329 -3.016,-10.205 0,-10.668 3.248,-15.926 7.422,-15.926 0.928,0 1.856,0.309 2.397,0.851 1.855,1.623 2.706,4.87 2.706,10.746 0,9.2 -2.629,15.23 -7.422,15.23 C 1.392,0.696 0.619,0.387 0,0 m 20.641,-12.369 c 0,-6.417 -2.706,-11.133 -7.035,-13.839 -2.474,-1.546 -6.881,-2.937 -10.591,-2.937 -11.752,0 -17.008,7.421 -17.008,16.621 0,5.875 2.783,10.514 6.958,13.22 2.629,1.701 6.648,3.092 10.9,3.092 10.824,0 16.776,-7.113 16.776,-16.157"
       style="fill:#f7fbfe;fill-opacity:1;fill-rule:nonzero;stroke:none"
       transform="matrix(1.4379325,0,0,-1.4379325,334.05034,139.32073)"
       clip-path="url(#clipPath23)" />
    <path
       id="path24"
       d="M 0,0 -1.609,6.016 7.555,8.468 9.164,2.452 Z"
       style="fill:#f7fbfe;fill-opacity:1;fill-rule:nonzero;stroke:none"
       transform="matrix(1.4379325,0,0,-1.4379325,-54.246071,130.10735)"
       clip-path="url(#clipPath25)" />
    <path
       id="path26"
       d="M 0,0 -1.622,6.016 7.53,8.446 9.152,2.43 Z"
       style="fill:#f7fbfe;fill-opacity:1;fill-rule:nonzero;stroke:none"
       transform="matrix(1.4379325,0,0,-1.4379325,286.3094,130.07596)"
       clip-path="url(#clipPath27)" />
  </g>
</svg>
