<?xml version="1.0" encoding="UTF-8" standalone="no"?>
<!-- Created with Inkscape (http://www.inkscape.org/) -->

<svg
   width="173.8441mm"
   height="187.69852mm"
   viewBox="0 0 173.8441 187.69852"
   version="1.1"
   id="svg263"
   xml:space="preserve"
   xmlns="http://www.w3.org/2000/svg"
   xmlns:svg="http://www.w3.org/2000/svg"><defs
     id="defs260" /><g
     id="layer1"
     transform="translate(-19.02813,-50.165911)"><path
       style="fill:#ffffff;fill-opacity:1;stroke-width:0.344629"
       d="M 98.22916,235.59742 C 84.249205,228.04511 41.987366,205.55392 28.120217,198.28636 l -9.077503,-4.75738 -0.01421,-45.43746 c -0.0078,-24.99061 0.107319,-45.43718 0.255854,-45.43683 0.148528,3.3e-4 4.32081,2.1357 9.271738,4.74521 l 9.001686,4.74458 0.180034,36.05109 0.180035,36.05108 7.201348,3.7615 c 13.045834,6.81427 15.247299,7.93569 15.365736,7.82724 0.06444,-0.059 0.07474,-11.89775 0.0229,-26.30835 l -0.09427,-26.20112 -7.377137,-3.89933 -7.377135,-3.89933 v -9.50966 c 0,-5.23031 0.08424,-9.50966 0.187188,-9.50966 0.102947,0 0.791584,0.34912 1.530286,0.77581 0.738705,0.4267 4.421676,2.37615 8.184381,4.33213 3.762706,1.95598 8.947677,4.69536 11.52216,6.0875 2.574482,1.39214 7.921483,4.21992 11.882227,6.28395 3.960741,2.06402 7.816265,4.12068 8.567819,4.57034 0.751555,0.44966 4.478249,2.39599 8.281545,4.32518 l 6.915091,3.50757 0.0954,9.63293 c 0.0525,5.29811 7.5e-4,9.63292 -0.11308,9.63292 -0.11472,0 -5.381402,-2.74603 -11.70385,-6.10231 -6.32245,-3.35626 -11.659092,-6.10231 -11.859207,-6.10231 -0.242034,0 -0.363848,8.78101 -0.363848,26.22828 v 26.22829 l 1.170219,0.66663 c 0.643621,0.36665 6.071636,3.28206 12.062263,6.47867 l 10.892053,5.81203 v 9.51443 c 0,5.23293 -0.12154,9.50091 -0.27007,9.48441 -0.14852,-0.0164 -2.13339,-1.03666 -4.410824,-2.26697 z m 10.4584,-43.1075 c 7.6e-4,-25.00874 0.1203,-45.63642 0.26346,-45.83931 0.14311,-0.20288 4.55398,-2.59769 9.80197,-5.3218 5.248,-2.7241 11.40515,-5.95366 13.68258,-7.17678 2.27742,-1.22313 11.91822,-6.26794 21.42401,-11.21068 9.50577,-4.94276 22.13812,-11.52943 28.07193,-14.63706 5.93376,-3.10763 10.83577,-5.65023 10.89331,-5.65023 0.0575,0 0.0635,20.44004 0.0136,45.42232 l -0.0913,45.42232 -2.34045,1.21498 c -1.28724,0.66823 -5.50003,2.86189 -9.36174,4.87477 l -7.02133,3.65979 -0.0915,-35.48836 c -0.0854,-33.02014 -0.1335,-35.47363 -0.69404,-35.2766 -0.6367,0.22383 -12.1584,6.1681 -33.15068,17.10316 l -12.69239,6.61156 v 7.5598 7.5598 l 1.17023,-0.65759 c 2.17913,-1.22454 33.42501,-17.53821 33.59126,-17.53821 0.0908,0 0.16505,4.20835 0.16505,9.3519 v 9.35188 l -4.05076,2.15493 c -2.22791,1.18523 -10.08639,5.30095 -17.46326,9.14605 l -13.41252,6.9911 v 19.09878 19.09877 l -1.38787,0.64863 c -0.76331,0.35674 -4.74479,2.44662 -8.84768,4.64418 -4.10291,2.19753 -7.68819,4.07581 -7.96728,4.17394 -0.43507,0.15294 -0.507,-6.3082 -0.50422,-45.29204 z M 97.869093,137.08293 C 93.611292,134.80599 86.725002,131.15243 82.566225,128.9639 78.407447,126.77537 68.847654,121.71747 61.322244,117.72414 53.796835,113.7308 42.211664,107.61572 35.57742,104.13507 21.01977,96.497401 20.066133,95.970051 20.191129,95.626531 c 0.1135,-0.31193 31.188756,-16.8617 63.409149,-33.769868 l 22.278022,-11.690752 9.4079,4.933112 c 5.17435,2.713215 14.83593,7.788799 21.47016,11.279075 6.63426,3.490279 19.27262,10.133403 28.08527,14.762503 20.52976,10.78383 26.36143,13.89932 26.8996,14.37072 0.44914,0.39342 -0.0497,0.67875 -12.49691,7.147589 -10.9297,5.68022 -49.75516,26.10593 -64.10544,33.72528 -4.66127,2.47492 -8.71203,4.57609 -9.0017,4.66925 -0.28965,0.0931 -4.01029,-1.69357 -8.268087,-3.97051 z m 24.304547,-24.20277 c 4.00416,-2.07405 14.82631,-7.79675 25.1147,-13.280549 3.7132,-1.97916 6.75127,-3.70675 6.75127,-3.83907 0,-0.13232 -4.57737,-2.67361 -10.17191,-5.64731 -16.62334,-8.83588 -35.65646,-18.83812 -36.85145,-19.366105 -1.27413,-0.562955 1.21504,-1.768991 -24.990126,12.108075 -7.426392,3.93268 -15.892477,8.39413 -18.813525,9.91433 -2.921047,1.52021 -5.310995,2.84544 -5.310995,2.94497 0,0.29441 20.346426,11.256009 34.926543,18.816609 3.069578,1.59174 7.260693,3.78191 9.313603,4.86701 l 3.73256,1.97294 6.34932,-3.31293 c 3.49215,-1.82211 7.96964,-4.1522 9.95001,-5.17797 z"
       id="path479" /></g></svg>
